<?xml version="1.0" encoding="UTF-8"?>
<svg id="_Слой_2" data-name="Слой 2" xmlns="http://www.w3.org/2000/svg" viewBox="0 0 201.14 170.1">
  <defs>
    <style>
      .cls-1 {
        fill: #fff;
        stroke-width: 0px;
      }
    </style>
  </defs>
  <g id="_Слой_1-2" data-name="Слой 1">
    <g>
      <path class="cls-1" d="m89.88,58.88c-4-.05-7.39,3.22-7.5,7.23-.11,4.16,3.37,7.68,7.54,7.6,4-.07,7.3-3.43,7.29-7.43,0-4-3.32-7.35-7.33-7.4Zm-.48,11.46c-2.31-.22-3.73-1.75-3.68-4.14.07-2.61,1.84-3.73,4.04-4.11,2.66.54,4.29,1.9,4.07,4.49-.21,2.51-1.87,4-4.44,3.76Zm21.93-11.46c-4-.04-7.39,3.24-7.49,7.24-.1,4.16,3.39,7.67,7.55,7.59,4-.08,7.29-3.45,7.28-7.45-.02-4-3.34-7.33-7.34-7.38Zm-.04,11.47c-2.55,0-4.09-1.57-4.08-4.13,0-2.36,1.49-3.85,3.82-3.98,2.59-.15,3.93,1.46,4.39,3.91-.28,2.51-1.55,4.19-4.13,4.2Zm.04-11.47c-4-.04-7.39,3.24-7.49,7.24-.1,4.16,3.39,7.67,7.55,7.59,4-.08,7.29-3.45,7.28-7.45-.02-4-3.34-7.33-7.34-7.38Zm-.04,11.47c-2.55,0-4.09-1.57-4.08-4.13,0-2.36,1.49-3.85,3.82-3.98,2.59-.15,3.93,1.46,4.39,3.91-.28,2.51-1.55,4.19-4.13,4.2Zm-21.41-11.47c-4-.05-7.39,3.22-7.5,7.23-.11,4.16,3.37,7.68,7.54,7.6,4-.07,7.3-3.43,7.29-7.43,0-4-3.32-7.35-7.33-7.4Zm-.48,11.46c-2.31-.22-3.73-1.75-3.68-4.14.07-2.61,1.84-3.73,4.04-4.11,2.66.54,4.29,1.9,4.07,4.49-.21,2.51-1.87,4-4.44,3.76Zm.48-11.46c-4-.05-7.39,3.22-7.5,7.23-.11,4.16,3.37,7.68,7.54,7.6,4-.07,7.3-3.43,7.29-7.43,0-4-3.32-7.35-7.33-7.4Zm-.48,11.46c-2.31-.22-3.73-1.75-3.68-4.14.07-2.61,1.84-3.73,4.04-4.11,2.66.54,4.29,1.9,4.07,4.49-.21,2.51-1.87,4-4.44,3.76Zm21.93-11.46c-4-.04-7.39,3.24-7.49,7.24-.1,4.16,3.39,7.67,7.55,7.59,4-.08,7.29-3.45,7.28-7.45-.02-4-3.34-7.33-7.34-7.38Zm-.04,11.47c-2.55,0-4.09-1.57-4.08-4.13,0-2.36,1.49-3.85,3.82-3.98,2.59-.15,3.93,1.46,4.39,3.91-.28,2.51-1.55,4.19-4.13,4.2Zm.04-11.47c-4-.04-7.39,3.24-7.49,7.24-.1,4.16,3.39,7.67,7.55,7.59,4-.08,7.29-3.45,7.28-7.45-.02-4-3.34-7.33-7.34-7.38Zm-.04,11.47c-2.55,0-4.09-1.57-4.08-4.13,0-2.36,1.49-3.85,3.82-3.98,2.59-.15,3.93,1.46,4.39,3.91-.28,2.51-1.55,4.19-4.13,4.2Zm-21.41-11.47c-4-.05-7.39,3.22-7.5,7.23-.11,4.16,3.37,7.68,7.54,7.6,4-.07,7.3-3.43,7.29-7.43,0-4-3.32-7.35-7.33-7.4Zm-.48,11.46c-2.31-.22-3.73-1.75-3.68-4.14.07-2.61,1.84-3.73,4.04-4.11,2.66.54,4.29,1.9,4.07,4.49-.21,2.51-1.87,4-4.44,3.76Zm.48-11.46c-4-.05-7.39,3.22-7.5,7.23-.11,4.16,3.37,7.68,7.54,7.6,4-.07,7.3-3.43,7.29-7.43,0-4-3.32-7.35-7.33-7.4Zm-.48,11.46c-2.31-.22-3.73-1.75-3.68-4.14.07-2.61,1.84-3.73,4.04-4.11,2.66.54,4.29,1.9,4.07,4.49-.21,2.51-1.87,4-4.44,3.76Zm21.93-11.46c-4-.04-7.39,3.24-7.49,7.24-.1,4.16,3.39,7.67,7.55,7.59,4-.08,7.29-3.45,7.28-7.45-.02-4-3.34-7.33-7.34-7.38Zm-.04,11.47c-2.55,0-4.09-1.57-4.08-4.13,0-2.36,1.49-3.85,3.82-3.98,2.59-.15,3.93,1.46,4.39,3.91-.28,2.51-1.55,4.19-4.13,4.2Zm.04-11.47c-4-.04-7.39,3.24-7.49,7.24-.1,4.16,3.39,7.67,7.55,7.59,4-.08,7.29-3.45,7.28-7.45-.02-4-3.34-7.33-7.34-7.38Zm-.04,11.47c-2.55,0-4.09-1.57-4.08-4.13,0-2.36,1.49-3.85,3.82-3.98,2.59-.15,3.93,1.46,4.39,3.91-.28,2.51-1.55,4.19-4.13,4.2Zm-21.41-11.47c-4-.05-7.39,3.22-7.5,7.23-.11,4.16,3.37,7.68,7.54,7.6,4-.07,7.3-3.43,7.29-7.43,0-4-3.32-7.35-7.33-7.4Zm-.48,11.46c-2.31-.22-3.73-1.75-3.68-4.14.07-2.61,1.84-3.73,4.04-4.11,2.66.54,4.29,1.9,4.07,4.49-.21,2.51-1.87,4-4.44,3.76Zm.48-11.46c-4-.05-7.39,3.22-7.5,7.23-.11,4.16,3.37,7.68,7.54,7.6,4-.07,7.3-3.43,7.29-7.43,0-4-3.32-7.35-7.33-7.4Zm-.48,11.46c-2.31-.22-3.73-1.75-3.68-4.14.07-2.61,1.84-3.73,4.04-4.11,2.66.54,4.29,1.9,4.07,4.49-.21,2.51-1.87,4-4.44,3.76Zm21.93-11.46c-4-.04-7.39,3.24-7.49,7.24-.1,4.16,3.39,7.67,7.55,7.59,4-.08,7.29-3.45,7.28-7.45-.02-4-3.34-7.33-7.34-7.38Zm-.04,11.47c-2.55,0-4.09-1.57-4.08-4.13,0-2.36,1.49-3.85,3.82-3.98,2.59-.15,3.93,1.46,4.39,3.91-.28,2.51-1.55,4.19-4.13,4.2Zm.04-11.47c-4-.04-7.39,3.24-7.49,7.24-.1,4.16,3.39,7.67,7.55,7.59,4-.08,7.29-3.45,7.28-7.45-.02-4-3.34-7.33-7.34-7.38Zm-.04,11.47c-2.55,0-4.09-1.57-4.08-4.13,0-2.36,1.49-3.85,3.82-3.98,2.59-.15,3.93,1.46,4.39,3.91-.28,2.51-1.55,4.19-4.13,4.2Zm-21.41-11.47c-4-.05-7.39,3.22-7.5,7.23-.11,4.16,3.37,7.68,7.54,7.6,4-.07,7.3-3.43,7.29-7.43,0-4-3.32-7.35-7.33-7.4Zm-.48,11.46c-2.31-.22-3.73-1.75-3.68-4.14.07-2.61,1.84-3.73,4.04-4.11,2.66.54,4.29,1.9,4.07,4.49-.21,2.51-1.87,4-4.44,3.76Zm49.2-.79c.32-3.56-.94-4.74-4.27-4.08-3.53.69-4.69-.85-4.09-4.19.12-.67.03-1.37.02-2.06-.19-7.92-5.66-13.41-13.57-13.57-3.43-.07-6.88.15-10.31-.09-1.37-.09-3.59,1.33-4.1-1.07-.39-1.88-.41-3.69,1.95-5.2,4.08-2.59,3.8-8.14-.09-10.7-2.93-1.92-6.74-1.27-8.84,1.51-2.31,3.07-1.88,7.2,1.65,9.3,2.49,1.48,2.19,3.44,1.8,5.25-.44,1.98-2.51.86-3.82.94-3.16.17-6.32.04-9.49.06-9.26.05-14.91,5.36-14.49,14.55.22,4.74-1.33,6.02-5.62,5.29-1.54-.26-2.91-.27-2.83,2.16.18,5.22.08,10.45.04,15.67-.02,1.3.23,1.95,1.77,2.02,2.12.1,5.1-1.17,6.17.63,1.04,1.73.3,4.53.33,6.85.02,1.1.17,2.23-.03,3.3-.67,3.63,1.01,4.2,4.27,4.11,8.38-.23,16.77-.08,25.16-.08,6.6,0,13.2.03,19.81,0,3.27-.03,7.66,1.11,9.53-.54,2.21-1.96.87-6.48.61-9.82-.3-3.9,1.12-5.15,4.71-4.48,3.22.61,3.92-.83,3.73-3.79-.27-3.98-.34-8,.02-11.95Zm-70.39,12.51c-2.09-.03-2.5-.79-2.4-2.62.13-2.44.02-4.9.04-7.34.02-1.64-.65-3.43,2.38-3.44,2.8,0,2.68,1.4,2.58,3.26-.07,1.23-.02,2.45-.02,3.68s-.1,2.46.03,3.67c.21,2.02-.36,2.85-2.61,2.81Zm29.08-47.82c-.1-2.09,1.19-3.37,3.28-3.41,1.94-.03,2.9,1.28,3.27,3.04-.11,1.95-1.08,3.25-2.95,3.43-2.07.2-3.5-.97-3.6-3.07Zm-3.37,58.37c0,2.21.78,4.39-3.2,4.42-3.79.03-3.54-1.8-3.41-4.22.02-.41,0-.83,0-1.81-.46-2.54-.22-4.82,4.04-4.16,1.76.28,2.9.31,2.59,2.47-.15,1.08-.03,2.2-.03,3.3Zm7.71,4.29c-3.48.28-5.4-.61-4.34-4.31.55-1.91-2.21-5.25,2.13-5.64,4.39-.39,4.4-.33,4.4,4.98-1.29,1.19,2.41,4.59-2.2,4.97Zm12.1-4.33c-.04,2.17.84,4.36-3.16,4.45-4.24.09-3.45-2.23-3.45-4.59,0-.28,0-.55,0-1.85-.08-1.51-.85-4.17,3.59-3.79,2.62.23,3.39.89,3.03,3.31-.12.81,0,1.65-.02,2.48Zm9.92,4.34c-6.62-.14-6.62,0-6.62-6.67s0-6.62-6.61-6.62c-7.84,0-15.7.09-23.53-.06-2.35-.04-3.17.63-2.93,2.97.19,1.76-.2,3.61.08,5.35.7,4.19-.94,5.1-5.02,5.13-4.19.04-5.35-1.07-5.03-5.17.4-5.06.1-10.17.1-15.27,0-5.64-.07-11.29.02-16.92.08-6.55,4.04-10.63,10.51-10.68,10.59-.09,21.19-.09,31.79,0,6.46.06,10.47,4.15,10.51,10.68.08,11.29-.06,22.57.08,33.86.04,2.65-.6,3.46-3.35,3.4Zm9.19-14.85c-2.26.04-2.76-.76-2.63-2.8.15-2.57.13-5.17,0-7.75-.1-1.97.3-2.78,2.6-2.85,2.64-.08,2.44,1.34,2.4,3.02-.03,1.22,0,2.45,0,3.67,0,1.36-.09,2.73.03,4.09.17,1.83-.29,2.59-2.38,2.62Zm-21.52-23.19c-4-.04-7.39,3.24-7.49,7.24-.1,4.16,3.39,7.67,7.55,7.59,4-.08,7.29-3.45,7.28-7.45-.02-4-3.34-7.33-7.34-7.38Zm-.04,11.47c-2.55,0-4.09-1.57-4.08-4.13,0-2.36,1.49-3.85,3.82-3.98,2.59-.15,3.93,1.46,4.39,3.91-.28,2.51-1.55,4.19-4.13,4.2Zm-21.41-11.47c-4-.05-7.39,3.22-7.5,7.23-.11,4.16,3.37,7.68,7.54,7.6,4-.07,7.3-3.43,7.29-7.43,0-4-3.32-7.35-7.33-7.4Zm-.48,11.46c-2.31-.22-3.73-1.75-3.68-4.14.07-2.61,1.84-3.73,4.04-4.11,2.66.54,4.29,1.9,4.07,4.49-.21,2.51-1.87,4-4.44,3.76Zm.48-11.46c-4-.05-7.39,3.22-7.5,7.23-.11,4.16,3.37,7.68,7.54,7.6,4-.07,7.3-3.43,7.29-7.43,0-4-3.32-7.35-7.33-7.4Zm-.48,11.46c-2.31-.22-3.73-1.75-3.68-4.14.07-2.61,1.84-3.73,4.04-4.11,2.66.54,4.29,1.9,4.07,4.49-.21,2.51-1.87,4-4.44,3.76Zm21.93-11.46c-4-.04-7.39,3.24-7.49,7.24-.1,4.16,3.39,7.67,7.55,7.59,4-.08,7.29-3.45,7.28-7.45-.02-4-3.34-7.33-7.34-7.38Zm-.04,11.47c-2.55,0-4.09-1.57-4.08-4.13,0-2.36,1.49-3.85,3.82-3.98,2.59-.15,3.93,1.46,4.39,3.91-.28,2.51-1.55,4.19-4.13,4.2Zm.04-11.47c-4-.04-7.39,3.24-7.49,7.24-.1,4.16,3.39,7.67,7.55,7.59,4-.08,7.29-3.45,7.28-7.45-.02-4-3.34-7.33-7.34-7.38Zm-.04,11.47c-2.55,0-4.09-1.57-4.08-4.13,0-2.36,1.49-3.85,3.82-3.98,2.59-.15,3.93,1.46,4.39,3.91-.28,2.51-1.55,4.19-4.13,4.2Zm-21.41-11.47c-4-.05-7.39,3.22-7.5,7.23-.11,4.16,3.37,7.68,7.54,7.6,4-.07,7.3-3.43,7.29-7.43,0-4-3.32-7.35-7.33-7.4Zm-.48,11.46c-2.31-.22-3.73-1.75-3.68-4.14.07-2.61,1.84-3.73,4.04-4.11,2.66.54,4.29,1.9,4.07,4.49-.21,2.51-1.87,4-4.44,3.76Zm.48-11.46c-4-.05-7.39,3.22-7.5,7.23-.11,4.16,3.37,7.68,7.54,7.6,4-.07,7.3-3.43,7.29-7.43,0-4-3.32-7.35-7.33-7.4Zm-.48,11.46c-2.31-.22-3.73-1.75-3.68-4.14.07-2.61,1.84-3.73,4.04-4.11,2.66.54,4.29,1.9,4.07,4.49-.21,2.51-1.87,4-4.44,3.76Zm21.93-11.46c-4-.04-7.39,3.24-7.49,7.24-.1,4.16,3.39,7.67,7.55,7.59,4-.08,7.29-3.45,7.28-7.45-.02-4-3.34-7.33-7.34-7.38Zm-.04,11.47c-2.55,0-4.09-1.57-4.08-4.13,0-2.36,1.49-3.85,3.82-3.98,2.59-.15,3.93,1.46,4.39,3.91-.28,2.51-1.55,4.19-4.13,4.2Zm.04-11.47c-4-.04-7.39,3.24-7.49,7.24-.1,4.16,3.39,7.67,7.55,7.59,4-.08,7.29-3.45,7.28-7.45-.02-4-3.34-7.33-7.34-7.38Zm-.04,11.47c-2.55,0-4.09-1.57-4.08-4.13,0-2.36,1.49-3.85,3.82-3.98,2.59-.15,3.93,1.46,4.39,3.91-.28,2.51-1.55,4.19-4.13,4.2Zm-21.41-11.47c-4-.05-7.39,3.22-7.5,7.23-.11,4.16,3.37,7.68,7.54,7.6,4-.07,7.3-3.43,7.29-7.43,0-4-3.32-7.35-7.33-7.4Zm-.48,11.46c-2.31-.22-3.73-1.75-3.68-4.14.07-2.61,1.84-3.73,4.04-4.11,2.66.54,4.29,1.9,4.07,4.49-.21,2.51-1.87,4-4.44,3.76Zm.48-11.46c-4-.05-7.39,3.22-7.5,7.23-.11,4.16,3.37,7.68,7.54,7.6,4-.07,7.3-3.43,7.29-7.43,0-4-3.32-7.35-7.33-7.4Zm-.48,11.46c-2.31-.22-3.73-1.75-3.68-4.14.07-2.61,1.84-3.73,4.04-4.11,2.66.54,4.29,1.9,4.07,4.49-.21,2.51-1.87,4-4.44,3.76Zm21.93-11.46c-4-.04-7.39,3.24-7.49,7.24-.1,4.16,3.39,7.67,7.55,7.59,4-.08,7.29-3.45,7.28-7.45-.02-4-3.34-7.33-7.34-7.38Zm-.04,11.47c-2.55,0-4.09-1.57-4.08-4.13,0-2.36,1.49-3.85,3.82-3.98,2.59-.15,3.93,1.46,4.39,3.91-.28,2.51-1.55,4.19-4.13,4.2Zm.04-11.47c-4-.04-7.39,3.24-7.49,7.24-.1,4.16,3.39,7.67,7.55,7.59,4-.08,7.29-3.45,7.28-7.45-.02-4-3.34-7.33-7.34-7.38Zm-.04,11.47c-2.55,0-4.09-1.57-4.08-4.13,0-2.36,1.49-3.85,3.82-3.98,2.59-.15,3.93,1.46,4.39,3.91-.28,2.51-1.55,4.19-4.13,4.2Zm-21.41-11.47c-4-.05-7.39,3.22-7.5,7.23-.11,4.16,3.37,7.68,7.54,7.6,4-.07,7.3-3.43,7.29-7.43,0-4-3.32-7.35-7.33-7.4Zm-.48,11.46c-2.31-.22-3.73-1.75-3.68-4.14.07-2.61,1.84-3.73,4.04-4.11,2.66.54,4.29,1.9,4.07,4.49-.21,2.51-1.87,4-4.44,3.76Z"/>
      <path class="cls-1" d="m89.88,58.88c-4-.05-7.39,3.22-7.5,7.23-.11,4.16,3.37,7.68,7.54,7.6,4-.07,7.3-3.43,7.29-7.43,0-4-3.32-7.35-7.33-7.4Zm-.48,11.46c-2.31-.22-3.73-1.75-3.68-4.14.07-2.61,1.84-3.73,4.04-4.11,2.66.54,4.29,1.9,4.07,4.49-.21,2.51-1.87,4-4.44,3.76Z"/>
      <path class="cls-1" d="m111.34,58.88c-4-.04-7.39,3.24-7.49,7.24-.1,4.16,3.39,7.67,7.55,7.59,4-.08,7.29-3.45,7.28-7.45-.02-4-3.34-7.33-7.34-7.38Zm-.04,11.47c-2.55,0-4.09-1.57-4.08-4.13,0-2.36,1.49-3.85,3.82-3.98,2.59-.15,3.93,1.46,4.39,3.91-.28,2.51-1.55,4.19-4.13,4.2Z"/>
      <path class="cls-1" d="m89.88,58.88c-4-.05-7.39,3.22-7.5,7.23-.11,4.16,3.37,7.68,7.54,7.6,4-.07,7.3-3.43,7.29-7.43,0-4-3.32-7.35-7.33-7.4Zm-.48,11.46c-2.31-.22-3.73-1.75-3.68-4.14.07-2.61,1.84-3.73,4.04-4.11,2.66.54,4.29,1.9,4.07,4.49-.21,2.51-1.87,4-4.44,3.76Z"/>
      <path class="cls-1" d="m111.34,58.88c-4-.04-7.39,3.24-7.49,7.24-.1,4.16,3.39,7.67,7.55,7.59,4-.08,7.29-3.45,7.28-7.45-.02-4-3.34-7.33-7.34-7.38Zm-.04,11.47c-2.55,0-4.09-1.57-4.08-4.13,0-2.36,1.49-3.85,3.82-3.98,2.59-.15,3.93,1.46,4.39,3.91-.28,2.51-1.55,4.19-4.13,4.2Z"/>
    </g>
    <path class="cls-1" d="m200.85,25.57c-.24-18.25-7.6-25.26-26.03-25.44-24.7-.27-49.4-.06-74.1-.06S51.32-.1,26.62.11C7.43.28.39,7.26.21,26.63c-.29,28.59-.27,57.14-.03,85.73.18,19.31,7.24,26.7,26,27.29,13.07.41,26.14-.03,39.21.18,3.39.06,8.36-1.94,8.83,4.3.32,4.27,1.24,8.51-5.68,9.01-5,.35-7.3,4.71-6.59,9.6.74,5.03,4.36,7.3,9.33,7.33,19.37.03,38.74,0,58.12.03,4.89,0,8.66-1.91,9.66-6.95.97-4.98-1.3-9.45-6.12-9.92-6.42-.59-6.57-4.06-6.15-8.69.59-7.27,6.24-4.59,9.95-4.68,13.07-.29,26.17.27,39.21-.24,17.22-.68,24.67-8.13,24.91-25.44.38-29.53.38-59.09,0-88.62Zm-17.25,85.11c.12,8.92-3.15,11.86-11.86,11.72-23.73-.38-47.43-.15-71.16-.15s-47.43-.24-71.16.15c-8.6.15-12.07-2.62-11.92-11.66.41-27.56.41-55.17,0-82.76-.12-8.45,3.21-10.63,11.13-10.57,47.9.26,95.83.24,143.76,0,7.8-.03,11.33,1.91,11.22,10.48-.41,27.59-.41,55.2,0,82.79Z"/>
  </g>
</svg>