<?xml version="1.0" encoding="UTF-8"?>
<svg id="_Слой_2" data-name="Слой 2" xmlns="http://www.w3.org/2000/svg" viewBox="0 0 201.14 170.1">
  <defs>
    <style>
      .cls-1 {
        fill: #fff;
        stroke-width: 0px;
      }
    </style>
  </defs>
  <g id="_Слой_1-2" data-name="Слой 1">
    <g>
      <path class="cls-1" d="m64.25,63.92c-.5,2.16-1.1,4.84-1.74,7.51-.46,1.93-.54,3.58,1.83,4.42,1.3.46,2,1.68,2.42,3,1.41,4.35,2.9,8.68,4.22,13.05.78,2.59.83,5.31-.21,7.81-1.42,3.41-2.18,6.98-2.99,10.54-.32,1.41-.78,2.7-2.5,2.28-1.61-.39-1.46-1.83-1.11-3.03.92-3.21,1.2-6.59,2.74-9.66,1.07-2.14,1.23-4.58.56-6.88-1.23-4.19-2.68-8.32-4.02-12.48-.35-1.1-.89-1.88-2.18-1.5-1.28.38-1.29,1.36-1.06,2.46.6,2.89,1.16,5.79,1.74,8.68.28,1.4.85,3.1-1.07,3.59-1.98.5-2.2-1.2-2.47-2.65-.54-2.8-1.1-5.6-1.73-8.37-.53-2.33-.39-4.45,1.49-6.18.37-.34.87-.66.71-1.25-.98-3.8,1.01-7.17,1.49-10.76.13-.95.66-2.11-.75-2.59-1.38-.46-1.75.66-2.17,1.57-1.49,3.23-3.19,6.4-4.35,9.74-1.27,3.66-.15,7.47.32,11.15.69,5.35,1.78,10.65,2.9,15.93.83,3.94-1.4,7.04-2.46,10.47-.25.8-1.2,1.13-2.08.73-.8-.36-1.26-1.02-1.16-1.96,0-.1.01-.21.06-.3,3.89-6.87.9-13.7-.3-20.47-.8-4.54-.92-9.12-1.53-13.66-.11-.82.02-1.58.38-2.37,1.8-3.87,3.49-7.8,5.31-11.65,1.23-2.6,3.46-3.37,6.13-2.71,2.53.62,3.61,2.46,3.58,5.54Z"/>
      <path class="cls-1" d="m152.17,75.77c-.09,7.08-1.44,13.87-3.02,20.61-.89,3.78-1.11,7.34.73,10.88.64,1.23,1.03,2.67-.76,3.27-1.78.6-2.08-.96-2.73-2.11-2.59-4.54-1.69-9.15-.64-13.86,1.06-4.76,1.67-9.62,2.56-14.39,1.28-6.89-2.86-11.8-5-17.47-.29-.76-.95-1.01-1.75-.8-1.08.29-1.04,1.13-.9,1.96.66,3.88,2.44,7.59,1.75,11.69-.06.34.5.83.83,1.19,1.49,1.64,1.87,3.46,1.32,5.64-.74,2.96-1.23,5.97-1.84,8.96-.27,1.35-.63,2.81-2.46,2.29-1.49-.42-1.43-1.67-1.13-3.02.65-2.88,1.11-5.8,1.76-8.67.3-1.31.52-2.53-1.08-2.97-1.51-.42-1.86.79-2.22,1.89-1.23,3.77-2.46,7.53-3.7,11.29-.87,2.64-.77,5.27.41,7.74,1.47,3.08,1.85,6.43,2.67,9.67.34,1.34.47,2.85-1.36,3.12-1.57.22-1.97-1.14-2.24-2.37-.78-3.57-1.57-7.11-2.99-10.53-1.02-2.47-1.06-5.19-.22-7.81,1.42-4.45,2.88-8.89,4.33-13.33.39-1.21,1.07-2.37,2.26-2.74,2.46-.75,2.33-2.52,1.95-4.37-.45-2.19-1.11-4.33-1.59-6.52-.69-3.21.45-5.67,2.96-6.56,2.84-1.02,5.41.21,6.88,3.34,1.51,3.22,2.94,6.48,4.46,9.69.67,1.41,1.22,2.81.76,4.29Z"/>
    </g>
    <g>
      <path class="cls-1" d="m116.68,42.5c.25-1.98-.02-4.27,2.66-4.06,2.63.21,2.13,2.47,2.13,4.19,0,9.21.91,8.34-8.19,8.33-1.71,0-3.97.58-4.33-1.99-.39-2.78,2.14-2.46,4.34-2.94-6.96-4.84-13.95-5.71-21.13-2.48-7.51,3.38-11.6,9.48-12.35,17.73-.09,1.02-.03,2.06,0,3.09.07,1.68.42,3.67-2.01,3.81-2.29.13-2.47-1.79-2.63-3.51-1.16-12.1,7.35-23.96,19.22-26.81,7.69-1.84,13.56-.66,22.29,4.64Z"/>
      <path class="cls-1" d="m84.71,82.65c-.26,1.12-.28,2.16-.73,2.97-.93,1.66-3.18,1.5-3.99-.21-.16-.33-.17-.74-.23-1.12-1.42-9.07-.34-10.33,8.71-10.13,1.67.04,3.67-.25,3.82,2.13.17,2.68-2.07,2.42-3.83,2.64,9.07,8.89,26.29,4.22,31.45-8.51,1.22-3.02,1.73-6.16,1.53-9.43-.11-1.75-.62-4.02,2.14-4,2.53.02,2.43,2.26,2.48,4.03.28,10.08-3.69,18.06-12.33,23.3-8.51,5.16-17.29,5.02-25.98.22-.99-.55-1.93-1.2-3.03-1.88Z"/>
    </g>
    <path class="cls-1" d="m200.85,25.57c-.24-18.25-7.6-25.26-26.03-25.44-24.7-.27-49.4-.06-74.1-.06S51.32-.1,26.62.11C7.43.28.39,7.26.21,26.63c-.29,28.59-.27,57.14-.03,85.73.18,19.31,7.24,26.7,26,27.29,13.07.41,26.14-.03,39.21.18,3.39.06,8.36-1.94,8.83,4.3.32,4.27,1.24,8.51-5.68,9.01-5,.35-7.3,4.71-6.59,9.6.74,5.03,4.36,7.3,9.33,7.33,19.37.03,38.74,0,58.12.03,4.89,0,8.66-1.91,9.66-6.95.97-4.98-1.3-9.45-6.12-9.92-6.42-.59-6.57-4.06-6.15-8.69.59-7.27,6.24-4.59,9.95-4.68,13.07-.29,26.17.27,39.21-.24,17.22-.68,24.67-8.13,24.91-25.44.38-29.53.38-59.09,0-88.62Zm-17.25,85.11c.12,8.92-3.15,11.86-11.86,11.72-23.73-.38-47.43-.15-71.16-.15s-47.43-.24-71.16.15c-8.6.15-12.07-2.62-11.92-11.66.41-27.56.41-55.17,0-82.76-.12-8.45,3.21-10.63,11.13-10.57,47.9.26,95.83.24,143.76,0,7.8-.03,11.33,1.91,11.22,10.48-.41,27.59-.41,55.2,0,82.79Z"/>
  </g>
</svg>