<?xml version="1.0" encoding="UTF-8"?>
<svg id="_Слой_2" data-name="Слой 2" xmlns="http://www.w3.org/2000/svg" viewBox="0 0 148.47 153.29">
  <defs>
    <style>
      .cls-1 {
        fill: #fff;
        stroke: #fff;
        stroke-miterlimit: 10;
        stroke-width: 6px;
      }
    </style>
  </defs>
  <g id="_Слой_1-2" data-name="Слой 1">
    <path class="cls-1" d="m130.2,78.57c0,.78,0,1.4,0,2.02,0,21.05.02,42.1.03,63.15,0,4.43-2.09,6.54-6.49,6.54-9.54,0-19.08,0-28.62,0-4.75,0-7.35-2.6-7.36-7.37-.01-11.16,0-22.32,0-33.48,0-3.1-.77-3.87-3.82-3.87-6.47,0-12.93,0-19.4,0-3,0-3.79.77-3.8,3.73,0,11.05,0,22.11,0,33.16,0,5.41-2.44,7.83-7.86,7.83-9.33,0-18.66,0-27.99,0-4.57,0-6.63-2.04-6.63-6.55,0-21.1,0-42.21,0-63.31v-1.87c-3.03,0-5.93,0-8.82,0-3.1,0-5.13-1.13-6.02-3.47-1-2.61-.08-4.68,1.83-6.56C26.82,47.36,48.38,26.17,69.95,4.98c2.68-2.64,5.9-2.64,8.57-.02,21.65,21.26,43.28,42.53,64.92,63.78,1.83,1.8,2.56,3.86,1.63,6.33-.84,2.25-2.89,3.48-5.7,3.49-3.01.01-6.01,0-9.18,0Zm-122.1-5.69c.11.2.22.4.32.61,2.94,0,5.89,0,8.83,0,4.21,0,6.08,1.89,6.08,6.11,0,21.26.01,42.52-.03,63.79,0,1.44.35,1.87,1.84,1.86,9.22-.07,18.44-.03,27.67-.04,2.61,0,2.8-.19,2.8-2.8,0-11,0-22,0-33,0-5.88,3.03-8.92,8.88-8.92,6.41,0,12.83,0,19.24,0,6.13,0,9.09,2.94,9.09,9.02,0,11.05,0,22.11,0,33.16,0,2.26.29,2.54,2.58,2.54,9.22,0,18.44,0,27.67,0q2.05,0,2.05-2.06c0-21.37,0-42.74,0-64.1,0-3.48,2.05-5.53,5.51-5.55,2.44-.01,4.88,0,7.31,0,.76,0,1.51,0,2.27,0,.07-.18.14-.36.21-.54C118.41,51.29,96.36,29.63,74.24,7.89,52.06,29.68,30.08,51.28,8.1,72.88Z"/>
  </g>
</svg>