<?xml version="1.0" encoding="UTF-8"?>
<svg id="_Слой_2" data-name="Слой 2" xmlns="http://www.w3.org/2000/svg" viewBox="0 0 201.14 170.1">
  <defs>
    <style>
      .cls-1 {
        fill: #fff;
        stroke-width: 0px;
      }
    </style>
  </defs>
  <g id="_Слой_1-2" data-name="Слой 1">
    <path class="cls-1" d="m100.83,40.1c-16.56-.11-30.1,13.19-30.22,29.71-.12,16.56,13.19,30.1,29.7,30.22,16.53.14,30.09-13.2,30.22-29.71.13-16.55-13.19-30.1-29.7-30.22Zm11.77,9.31q-5.8,4.1-13.5-3.24c5.01-.34,9.26.89,13.5,3.24Zm-1.7,20.21c.44.86.47,1.57-.58,2.16-4.44,2.51-8.83,5.1-13.23,7.65-.22.12-.44.23-.85.43-.29-.25-.68-.53-.99-.86-.26-.26-.44-.61-.65-.91q-6.09-8.4,2.86-13.57c.11-.06.2-.15.32-.2,2.56-1.19,5.34-4.61,7.36-3.57,3,1.55,4.17,5.65,5.77,8.87Zm-24.53-16.99c.29-2.52,2.03-3.53,4.16-4.08,2.19-.09,9.76,4.82,10.59,6.71.48,1.1-.36,1.26-.94,1.6-3.54,2.08-7.11,4.11-10.63,6.2-1.19.71-1.99.84-2.38-.8-.74-3.17-1.17-6.36-.8-9.62Zm-5.58,4.02c.39,2.06.64,3.53.94,4.99q1.19,5.79-5.05,8.41c-.14-4.81,1.24-9.01,4.11-13.4Zm.19,27.09c-.87-1.03-1.59-2.26-2.06-3.52-.52-1.4-2.19-3.08-.83-4.32,1.79-1.64,4.19-2.62,6.18-3.79.89.02,6.99,10.43,6.48,10.76-2.06,1.36-4.12,2.91-6.42,3.7-1.83.63-2.4-1.69-3.35-2.83Zm7.61,7.03q5.81-4.54,13.3,3.2c-4.92.26-9.2-.89-13.3-3.2Zm23.88.12c-2.72,1.46-4.83-.11-6.89-1.38-7.25-4.5-7.22-4.78.09-8.99.43-.25.86-.49,1.3-.74,7.39-4.26,7.78-4.03,7.94,4.85-.14,2.14.35,4.77-2.44,6.26Zm1.92-25.92c-.27-.94-.91-1.77-1.41-2.63-3.04-5.19-2.99-5.09,2.06-8.07,1.88-1.11,2.99-1.02,4.26.78,1.56,2.21,4.29,7.11,4.23,8.8-.66,1.23-2.56,1.48-3.84,2.51-2.45,1.97-4.29,2.14-5.31-1.4Zm5.99,18.56c-.36-1.91-.59-3.23-.86-4.54q-1.25-6.09,5.01-9.06c.02,5.04-1.39,9.25-4.16,13.6Z"/>
    <path class="cls-1" d="m200.85,25.57c-.24-18.25-7.6-25.26-26.03-25.44-24.7-.27-49.4-.06-74.1-.06S51.32-.1,26.62.11C7.43.28.39,7.26.21,26.63c-.29,28.59-.27,57.14-.03,85.73.18,19.31,7.24,26.7,26,27.29,13.07.41,26.14-.03,39.21.18,3.39.06,8.36-1.94,8.83,4.3.32,4.27,1.24,8.51-5.68,9.01-5,.35-7.3,4.71-6.59,9.6.74,5.03,4.36,7.3,9.33,7.33,19.37.03,38.74,0,58.12.03,4.89,0,8.66-1.91,9.66-6.95.97-4.98-1.3-9.45-6.12-9.92-6.42-.59-6.57-4.06-6.15-8.69.59-7.27,6.24-4.59,9.95-4.68,13.07-.29,26.17.27,39.21-.24,17.22-.68,24.67-8.13,24.91-25.44.38-29.53.38-59.09,0-88.62Zm-17.25,85.11c.12,8.92-3.15,11.86-11.86,11.72-23.73-.38-47.43-.15-71.16-.15s-47.43-.24-71.16.15c-8.6.15-12.07-2.62-11.92-11.66.41-27.56.41-55.17,0-82.76-.12-8.45,3.21-10.63,11.13-10.57,47.9.26,95.83.24,143.76,0,7.8-.03,11.33,1.91,11.22,10.48-.41,27.59-.41,55.2,0,82.79Z"/>
  </g>
</svg>