<?xml version="1.0" encoding="UTF-8"?>
<svg id="_Слой_2" data-name="Слой 2" xmlns="http://www.w3.org/2000/svg" viewBox="0 0 161.77 161.68">
  <defs>
    <style>
      .cls-1 {
        fill: #fff;
        stroke-width: 0px;
      }
    </style>
  </defs>
  <g id="_Слой_1-2" data-name="Слой 1">
    <path class="cls-1" d="m0,85.6c0-3.16,0-6.32,0-9.48.1-.56.21-1.11.29-1.67.38-2.92.61-5.86,1.16-8.75,3.06-16.11,10.39-30.02,21.92-41.66C35.45,11.85,49.97,4.17,66.93,1.25,69.97.72,73.06.41,76.13,0c3.16,0,6.32,0,9.48,0,.46.09.92.2,1.38.27,4.41.68,8.89,1.05,13.22,2.09,41.5,9.94,68.24,51.63,60.11,93.61-3.38,17.45-11.53,32.32-24.65,44.28-18.73,17.05-40.86,23.85-65.93,20.67-15.97-2.03-30.05-8.58-42.11-19.24-14.21-12.55-23.1-28.17-26.37-46.9C.71,91.74.41,88.66,0,85.6Zm61.76,3.21c-18.51-13.34-18.51-36.93-6.73-50.35,12.49-14.24,33.74-15.98,47.74-3.9,6.87,5.93,11.05,13.38,11.87,22.43,1.21,13.23-3.97,23.71-14.56,31.74,17.92,7.26,29.43,20.12,34.71,38.6,23.13-25.87,25.31-70.74-6.01-99.26C97.7-.25,49.89,4.13,24.12,37.71-.14,69.33,9.15,108.55,27.03,127.23c2.32-8.84,6.46-16.67,12.56-23.42,6.1-6.74,13.44-11.69,22.17-15Zm20.39,63.44c1.69-.14,4.75-.29,7.77-.66,12.1-1.49,23.06-5.9,32.89-13.09,4.16-3.04,4.1-3.13,2.86-8.19-5.79-23.76-28.51-38.76-52.58-34.71-19.63,3.31-35.14,19.32-37.81,39.09-.06.48.27,1.21.65,1.52,13.09,10.54,28.07,15.82,46.21,16.04Zm-1.36-67.15c13.43.09,24.46-10.81,24.65-24.38.18-13.35-10.86-24.56-24.34-24.7-13.5-.15-24.61,10.78-24.8,24.4-.19,13.43,10.89,24.59,24.5,24.69Z"/>
  </g>
</svg>