<?xml version="1.0" standalone="no"?>
<!DOCTYPE svg PUBLIC "-//W3C//DTD SVG 20010904//EN"
 "http://www.w3.org/TR/2001/REC-SVG-20010904/DTD/svg10.dtd">
<svg version="1.0" xmlns="http://www.w3.org/2000/svg"
 width="367.000000pt" height="367.000000pt" viewBox="0 0 367.000000 367.000000"
 preserveAspectRatio="xMidYMid meet">
<metadata>
Created by potrace 1.14, written by Peter Selinger 2001-2017
</metadata>
<g transform="translate(0.000000,367.000000) scale(0.100000,-0.100000)"
fill="#000000" stroke="none">
<path d="M310 3655 c-148 -46 -259 -161 -299 -310 -15 -56 -15 -2946 -1 -3012
35 -156 165 -287 321 -322 60 -14 2948 -14 3008 0 134 30 247 128 303 261 l23
53 3 1491 c2 1577 3 1533 -41 1616 -41 76 -103 142 -174 183 -97 57 -29 55
-1628 54 -1225 0 -1477 -3 -1515 -14z"/>
</g>
</svg>
